<svg width="25" height="24" viewBox="0 0 25 24" fill="none" xmlns="http://www.w3.org/2000/svg">
<path d="M20.5 20C21.0304 20 21.5391 19.7893 21.9142 19.4142C22.2893 19.0391 22.5 18.5304 22.5 18V8C22.5 7.46957 22.2893 6.96086 21.9142 6.58579C21.5391 6.21071 21.0304 6 20.5 6H12.6C12.2655 6.00328 11.9355 5.92261 11.6403 5.76538C11.3451 5.60815 11.094 5.37938 10.91 5.1L10.1 3.9C9.91789 3.62347 9.66997 3.39648 9.3785 3.2394C9.08702 3.08231 8.76111 3.00005 8.43 3H4.5C3.96957 3 3.46086 3.21071 3.08579 3.58579C2.71071 3.96086 2.5 4.46957 2.5 5V18C2.5 18.5304 2.71071 19.0391 3.08579 19.4142C3.46086 19.7893 3.96957 20 4.5 20H20.5Z" stroke="#1CC5FF" stroke-width="2" stroke-linecap="round" stroke-linejoin="round"/>
</svg>
