<svg width="1920" height="1055" viewBox="0 0 1920 1055" fill="none" xmlns="http://www.w3.org/2000/svg">
<g filter="url(#filter0_f_67_6)">
<mask id="mask0_67_6" style="mask-type:alpha" maskUnits="userSpaceOnUse" x="0" y="42" width="1920" height="971">
<rect width="1919.97" height="970.681" transform="translate(0 42.0002)" fill="url(#paint0_linear_67_6)"/>
</mask>
<g mask="url(#mask0_67_6)">
<path opacity="0.2" d="M69.0899 895.53L8.48596e-05 1012.68L1919.97 1012.68L1919.97 42L1892.7 209.359L1856.33 209.359C1846.64 237.252 1826.52 293.038 1823.61 293.038C1820.7 293.038 1801.79 326.51 1792.7 343.246L1714.52 393.453L1669.06 460.397L1596.34 393.453L1558.16 343.246L1503.61 460.397L1447.25 460.397L1399.98 343.246C1381.8 326.51 1344.71 293.038 1341.8 293.038C1338.89 293.038 1315.13 259.566 1303.62 242.831L1274.52 242.831L1205.44 293.038L1145.44 343.246L1118.16 460.397L1036.35 510.605L994.529 560.812L947.258 644.492L901.804 754.321L881.804 754.321L827.259 764.781L774.533 644.492L729.079 560.812L701.807 560.812L654.535 510.605L587.263 560.812L523.628 560.812L459.993 644.492L396.357 744.907L349.085 845.322L298.177 895.53L229.087 845.322L174.543 895.53L119.998 945.738L69.0899 895.53Z" fill="url(#paint1_linear_67_6)"/>
</g>
<path d="M8.48596e-05 1012.68L69.0899 895.53L119.998 945.737L174.543 895.53L229.087 845.322L298.177 895.53L349.085 845.322L396.357 744.907L459.993 644.492L523.628 560.812L587.263 560.812L654.535 510.605L701.807 560.812L729.079 560.812L774.533 644.492L827.26 764.781L881.804 754.321L901.804 754.321L947.257 644.492L994.529 560.812L1036.35 510.605L1118.16 460.397L1145.44 343.246L1205.44 293.038L1274.52 242.831L1303.62 242.831C1315.13 259.566 1338.89 293.038 1341.8 293.038C1344.71 293.038 1381.8 326.51 1399.98 343.246L1447.25 460.397L1503.61 460.397L1558.16 343.246L1596.34 393.453L1669.06 460.397L1714.52 393.453L1792.7 343.246C1801.79 326.51 1820.7 293.038 1823.61 293.038C1826.52 293.038 1846.64 237.252 1856.33 209.359L1892.7 209.359L1919.97 42" stroke="url(#paint2_linear_67_6)" stroke-width="3.6943" stroke-linecap="round" stroke-linejoin="round"/>
<g opacity="0.2">
<rect x="600.198" y="455.793" width="112.429" height="113.732" rx="56.2146" stroke="#2A41B8" stroke-width="1.27288"/>
</g>
</g>
<defs>
<filter id="filter0_f_67_6" x="-41.8472" y="0.152584" width="2003.66" height="1054.38" filterUnits="userSpaceOnUse" color-interpolation-filters="sRGB">
<feFlood flood-opacity="0" result="BackgroundImageFix"/>
<feBlend mode="normal" in="SourceGraphic" in2="BackgroundImageFix" result="shape"/>
<feGaussianBlur stdDeviation="20" result="effect1_foregroundBlur_67_6"/>
</filter>
<linearGradient id="paint0_linear_67_6" x1="959.984" y1="0" x2="959.984" y2="970.681" gradientUnits="userSpaceOnUse">
<stop/>
<stop offset="1" stop-opacity="0"/>
</linearGradient>
<linearGradient id="paint1_linear_67_6" x1="959.985" y1="1012.68" x2="959.984" y2="42.0001" gradientUnits="userSpaceOnUse">
<stop stop-color="#2A41B8"/>
<stop offset="1" stop-color="#2A41B8"/>
</linearGradient>
<linearGradient id="paint2_linear_67_6" x1="312.884" y1="810.9" x2="1919.99" y2="9.15005" gradientUnits="userSpaceOnUse">
<stop offset="0.370192" stop-color="#1CC5FF"/>
<stop offset="1" stop-color="#2A41B8"/>
</linearGradient>
</defs>
</svg>
