<svg width="1920" height="975" viewBox="0 0 1920 975" fill="none" xmlns="http://www.w3.org/2000/svg">
<path d="M8.48596e-05 972.681L69.0899 855.53L119.998 905.737L174.543 855.53L229.087 805.322L298.177 855.53L349.085 805.322L396.357 704.907L459.993 604.492L523.628 520.812L587.263 520.812L654.535 470.605L701.807 520.812L729.079 520.812L774.533 604.492L827.26 724.781L881.804 714.321L901.804 714.321L947.257 604.492L994.529 520.812L1036.35 470.605L1118.16 420.397L1145.44 303.246L1205.44 253.038L1274.52 202.831L1303.62 202.831C1315.13 219.566 1338.89 253.038 1341.8 253.038C1344.71 253.038 1381.8 286.51 1399.98 303.246L1447.25 420.397L1503.61 420.397L1558.16 303.246L1596.34 353.453L1669.06 420.397L1714.52 353.453L1792.7 303.246C1801.79 286.51 1820.7 253.038 1823.61 253.038C1826.52 253.038 1846.64 197.252 1856.33 169.359L1892.7 169.359L1919.97 2.00002" stroke="url(#paint0_linear_67_10)" stroke-width="3.6943" stroke-linecap="round" stroke-linejoin="round"/>
<defs>
<linearGradient id="paint0_linear_67_10" x1="312.884" y1="770.9" x2="1919.99" y2="-30.85" gradientUnits="userSpaceOnUse">
<stop offset="0.370192" stop-color="#1CC5FF"/>
<stop offset="1" stop-color="#2A41B8"/>
</linearGradient>
</defs>
</svg>
