<svg width="405" height="68" viewBox="0 0 405 68" fill="none" xmlns="http://www.w3.org/2000/svg">
<path d="M404.152 38.2562C402.104 39.6002 392.248 44.8482 386.04 44.2722C383.224 44.0162 381.176 42.4162 381.048 39.5362C378.872 40.8162 375.032 44.3362 372.28 48.3682C371.64 49.3282 370.168 48.4962 370.616 47.4082C378.936 34.3522 392.696 17.8402 401.784 8.56022C402.168 8.17622 402.744 8.17622 403.128 8.49622C403.512 8.88022 403.512 9.52022 403.192 9.90422C395.384 17.8402 388.088 26.3522 379.128 38.3842C382.712 35.8242 390.648 31.8562 393.848 32.5602C395.064 32.8162 395.128 33.9682 394.616 34.8002C392.376 38.2562 385.272 39.6642 383.352 39.6002V39.6642C383.416 40.9442 384.568 42.0962 386.232 42.2882C390.712 42.8642 398.712 39.0242 403.32 36.5282C404.6 35.8242 405.368 37.4882 404.152 38.2562ZM392.312 34.3522C391.288 34.4162 387.256 36.0162 384.12 37.6802C385.848 37.5522 391.096 36.0802 392.312 34.3522Z" fill="#1CC5FF"/>
<path d="M360.288 42.1598C359.648 40.0478 361.888 37.7438 363.104 36.5278C365.344 34.2238 368.16 32.1118 368.352 31.9838C368.8 31.6638 369.376 31.7918 369.696 32.2398C370.016 32.6878 369.888 33.2638 369.44 33.5838C369.312 33.6478 366.624 35.6958 364.448 37.8718C363.872 38.4478 361.568 40.8798 362.144 41.6478C363.104 42.9278 368.224 41.2638 369.824 40.6238C372.576 39.5358 377.632 36.7198 378.464 36.2078C378.912 35.8878 379.488 36.0158 379.744 36.4638C380.064 36.9118 379.936 37.4878 379.488 37.8078C378.528 38.4478 373.408 41.3278 370.464 42.4798C368.8 43.1198 366.048 44.0158 363.744 44.0158C362.08 44.0158 360.736 43.5038 360.288 42.1598ZM372 29.1678C371.744 28.7198 371.936 28.0798 372.448 27.8878C372.704 27.7598 373.088 27.4398 373.472 27.1838L374.496 26.2878C374.88 25.9038 375.52 25.9678 375.84 26.3518C376.224 26.7358 376.16 27.3758 375.776 27.6958C375.52 27.9518 375.136 28.3358 374.688 28.6558C374.24 28.9758 373.728 29.3598 373.28 29.6158C372.832 29.8078 372.256 29.6158 372 29.1678Z" fill="#1CC5FF"/>
<path d="M331.297 42.7999C331.681 42.2879 332.065 41.648 332.833 40.88L338.401 34.5439C338.721 34.0959 339.361 34.096 339.745 34.416C340.129 34.736 340.193 35.3759 339.873 35.7599L338.081 37.8079C341.281 36.2079 347.553 33.9039 350.817 34.2879C351.969 34.4159 352.289 35.568 351.649 36.528C350.881 37.6159 348.449 40.048 348.449 41.264C348.705 42.352 353.441 41.328 356.001 40.304C358.817 39.152 361.889 37.36 362.721 36.784C363.169 36.528 363.745 36.656 364.065 37.04C364.321 37.488 364.193 38.1279 363.809 38.3839C362.849 39.0239 359.649 41.008 356.641 42.096C354.529 42.928 351.841 43.632 349.793 43.632C349.089 43.632 348.513 43.5679 348.001 43.3759C346.913 42.9279 346.529 42.1599 346.529 41.3279C346.529 40.3679 346.977 39.3439 347.553 38.6399C348.129 37.8719 348.833 36.912 349.665 35.952C344.481 36.464 337.505 39.6639 334.177 42.2879L332.897 43.7599C332.193 44.5919 330.657 43.8239 331.297 42.7999Z" fill="#1CC5FF"/>
<path d="M310.213 43.2478C309.317 42.3518 309.445 41.1358 309.765 40.1758C310.085 39.2158 310.725 38.1918 311.493 37.2318C312.197 36.3358 313.093 35.4398 313.925 34.7358C314.693 34.0958 315.525 33.5198 316.293 33.3278C316.805 33.1998 317.317 33.5198 317.445 34.0958C317.573 34.6078 317.253 35.1198 316.741 35.1838C316.485 35.2478 315.909 35.5678 315.141 36.2078C314.437 36.7838 313.605 37.6158 312.965 38.4478C312.325 39.2798 311.813 40.1118 311.621 40.8158C311.365 41.5198 311.493 41.7758 311.557 41.9038C311.685 42.0318 312.133 42.2238 313.221 41.9038C314.181 41.7118 315.461 41.1358 316.805 40.3038C319.493 38.7678 322.373 36.4638 324.037 34.6078C324.869 33.7118 326.277 34.8638 325.509 35.8238C325.189 36.2718 324.357 37.2958 323.653 38.4478C322.885 39.7278 322.629 40.6878 322.757 41.1998C322.885 41.5838 323.461 41.6478 323.845 41.7118C328.325 41.5198 332.613 38.7038 336.197 36.5918C336.645 36.2718 337.221 36.4638 337.477 36.9118C337.797 37.3598 337.669 37.9358 337.157 38.1918C333.701 40.3678 328.005 43.8238 323.781 43.5678C322.629 43.5678 321.349 43.1198 320.901 41.7758C320.773 41.1998 320.773 40.6238 320.901 40.0478V39.9198L319.941 40.6238C319.237 41.1358 318.469 41.5838 317.765 41.9678C316.101 42.9918 313.989 44.0158 312.261 44.0158C311.493 44.0158 310.725 43.8238 310.213 43.2478Z" fill="#1CC5FF"/>
<path d="M293.975 42.1598C293.335 40.0478 295.575 37.7438 296.791 36.5278C299.031 34.2238 301.847 32.1118 302.039 31.9838C302.487 31.6638 303.063 31.7918 303.383 32.2398C303.703 32.6878 303.575 33.2638 303.127 33.5838C302.999 33.6478 300.311 35.6958 298.135 37.8718C297.559 38.4478 295.255 40.8798 295.831 41.6478C296.791 42.9278 301.911 41.2638 303.511 40.6238C306.263 39.5358 311.319 36.7198 312.151 36.2078C312.599 35.8878 313.175 36.0158 313.431 36.4638C313.751 36.9118 313.623 37.4878 313.175 37.8078C312.215 38.4478 307.095 41.3278 304.151 42.4798C302.487 43.1198 299.735 44.0158 297.431 44.0158C295.767 44.0158 294.423 43.5038 293.975 42.1598ZM305.687 29.1678C305.431 28.7198 305.623 28.0798 306.135 27.8878C306.391 27.7598 306.775 27.4398 307.159 27.1838L308.183 26.2878C308.567 25.9038 309.207 25.9678 309.527 26.3518C309.911 26.7358 309.847 27.3758 309.463 27.6958C309.207 27.9518 308.823 28.3358 308.375 28.6558C307.927 28.9758 307.415 29.3598 306.967 29.6158C306.519 29.8078 305.943 29.6158 305.687 29.1678Z" fill="#1CC5FF"/>
<path d="M258.111 66.6722C259.135 63.9842 261.183 60.4002 263.423 56.8162L265.471 53.8082L265.983 52.9122C272.447 42.2882 280.959 31.4722 283.967 27.8882C284.287 27.4402 284.863 27.4402 285.311 27.7602C285.759 28.0802 285.759 28.6562 285.439 29.1042C284.159 30.7042 282.431 32.8162 279.231 37.1682C280.831 35.5042 282.687 34.1602 284.607 33.6482C285.759 33.3282 287.039 33.7122 287.551 35.1202C288.255 37.1042 286.463 39.6002 284.543 41.3282L284.159 41.6482L285.311 41.3282C288.447 40.4962 293.183 38.3842 296.767 36.4002C297.279 36.1442 297.855 36.3362 298.111 36.7842C298.367 37.2962 298.175 37.8722 297.727 38.1282C293.503 40.4322 287.999 42.7362 284.479 43.5042C282.751 43.8882 281.151 44.1442 279.679 44.0802H279.359L279.103 44.1442C278.079 44.2082 277.183 44.0162 276.479 43.3122L276.159 42.9922C273.535 45.9362 270.271 50.0962 267.455 54.2562L267.071 54.8322L265.919 56.7522C263.679 60.5922 261.503 64.2402 259.903 67.4402C259.327 68.5282 257.663 67.8242 258.111 66.6722ZM282.495 40.4962C284.863 38.7042 286.015 36.5922 285.695 35.7602C285.567 35.3762 285.183 35.5042 284.991 35.5042C284.351 35.6962 283.391 36.1442 282.367 36.9122C280.511 38.1922 278.591 40.0482 277.503 41.3282L277.311 41.5202L277.567 41.6482C277.823 41.9042 278.271 42.0322 278.975 42.1602H279.167L279.487 42.0962C280.319 41.9042 281.343 41.3922 282.495 40.4962Z" fill="#1CC5FF"/>
<path d="M257.654 45.0399C256.246 44.8479 255.542 43.9519 255.478 42.8639C255.35 41.9039 255.67 40.7519 256.182 39.6639C257.334 37.4239 259.574 34.9279 262.518 33.5839C262.902 33.4559 263.286 33.5199 263.606 33.7119L263.67 33.7759C263.862 33.0719 264.31 32.8159 265.014 32.8159C265.206 32.8159 265.398 32.8799 265.654 32.9439C266.87 33.3919 267.446 34.0959 267.51 34.9919V35.0559C269.174 35.8239 271.03 36.0799 272.886 36.0799C274.614 36.0799 276.406 35.8239 277.942 35.5039C278.454 35.3759 279.03 35.6319 279.222 36.0799C279.35 36.5919 279.094 37.1039 278.646 37.2319C276.598 37.6799 274.806 37.8719 273.142 37.8719C271.03 37.8719 269.174 37.5519 267.446 37.0399L267.382 37.1679C267.062 38.1919 266.55 39.2799 265.846 40.1759C264.31 42.1599 260.854 45.4239 257.654 45.0399ZM264.246 39.1519C264.95 38.1279 265.526 37.0399 265.654 36.2719C264.694 35.6319 264.182 35.1839 263.926 34.7359L263.798 34.9279C263.67 35.0559 263.606 35.0559 263.478 35.1199C262.39 35.5679 260.79 36.6559 259.318 38.2559C257.782 39.9839 256.438 42.9279 257.782 43.3119C259.638 43.8239 262.646 41.1999 264.246 39.1519Z" fill="#1CC5FF"/>
<path d="M233.028 43.824C233.22 43.248 234.372 41.584 241.796 33.52C242.116 33.072 242.756 33.072 243.14 33.392C243.524 33.712 243.588 34.352 243.268 34.736L241.156 37.232C244.036 35.76 251.14 32.688 254.212 33.264C255.428 33.52 255.492 34.736 254.916 35.44C254.02 36.592 251.908 36.592 252.868 35.184L253.06 34.992H252.804C247.876 35.504 241.412 39.024 237.764 41.584C237.124 42.032 236.42 42.928 234.628 44.784C233.924 45.616 232.58 44.784 233.028 43.824Z" fill="#1CC5FF"/>
<path d="M186.947 58.0961C186.947 58.0321 187.011 57.9681 187.011 57.9041C187.203 57.0721 188.227 55.3441 189.187 53.8721C190.467 52.0161 192.195 49.5201 194.243 46.7041C198.339 41.0081 199.107 39.8561 204.739 32.6241L205.123 32.1121C203.587 32.1121 201.347 31.9841 199.427 31.4721C198.275 31.2161 197.123 30.7041 196.355 29.9361C195.523 29.1041 195.267 27.8881 195.843 26.6081C196.419 25.3281 197.507 24.6881 198.851 24.5601C200.195 24.4321 201.667 24.8161 203.267 25.4561C204.739 26.0961 206.403 26.9921 208.195 28.2081C218.179 15.5361 228.227 3.37608 231.171 1.07208C231.619 0.752077 232.195 0.816076 232.515 1.20008C232.835 1.64808 232.771 2.22408 232.387 2.54408C229.699 4.65608 220.099 16.2401 209.795 29.2961L210.179 29.5521L211.779 29.2321C218.755 27.5041 228.739 23.7921 237.827 19.3761C243.907 16.4321 249.475 13.2321 253.443 10.0961C257.603 6.89608 259.651 4.14408 259.459 2.16007C259.395 1.64808 259.779 1.13608 260.355 1.13608C260.867 1.07208 261.315 1.45608 261.379 1.96808C261.635 5.16808 258.627 8.49608 254.659 11.6321C250.499 14.8321 244.803 18.1601 238.659 21.1041C229.571 25.5841 219.395 29.3601 212.163 31.0881H212.099L212.867 31.6641C213.379 32.1121 213.827 32.5601 214.339 32.9441C222.147 40.0481 230.275 50.7361 232.579 61.6161C232.643 62.1281 232.323 62.6401 231.811 62.7681C231.299 62.8961 230.787 62.5761 230.659 62.0641C228.483 51.6961 220.739 41.3281 213.059 34.4161C212.099 33.5201 211.139 32.7521 210.179 31.9841L209.667 31.6001L208.771 31.7921C208.387 31.8561 208.003 31.9201 207.683 31.9201L206.211 33.8401C200.643 41.0721 199.875 42.1601 195.779 47.7921C193.731 50.6721 192.067 53.1041 190.851 54.9601C189.187 57.3921 188.931 58.1601 188.867 58.2881L188.739 58.6721C188.547 58.9921 188.227 59.1841 187.843 59.1201C187.267 59.0561 186.883 58.6081 186.947 58.0961ZM205.891 30.1281C206.147 30.1281 206.403 30.1921 206.659 30.1281C206.787 30.0001 206.915 29.8721 206.979 29.7441C205.443 28.6561 203.907 27.8241 202.563 27.2481C201.091 26.6081 199.875 26.4161 199.043 26.4801C198.275 26.5441 197.827 26.8641 197.571 27.3761C197.315 28.0161 197.443 28.3361 197.763 28.5921C198.147 28.9761 198.851 29.3601 199.875 29.6161C201.923 30.1281 204.611 30.1921 205.891 30.1281Z" fill="#1CC5FF"/>
<path d="M144.439 43.6959C141.815 43.6959 139.511 43.696 138.423 43.248C136.823 42.544 136.311 41.52 136.311 40.368C136.311 38.768 137.271 37.04 138.039 35.952C132.855 36.464 125.943 39.6639 122.615 42.2879L121.335 43.7599C120.631 44.5919 119.095 43.8239 119.735 42.7999C120.119 42.2879 120.503 41.648 121.271 40.88L126.839 34.5439C127.159 34.0959 127.799 34.096 128.183 34.416C128.567 34.736 128.631 35.3759 128.311 35.7599L126.519 37.8079C129.719 36.2079 135.991 33.9039 139.255 34.2879C140.535 34.4799 140.599 35.7599 140.023 36.528C138.871 38.128 138.359 39.216 138.359 39.984C138.359 41.84 141.239 41.776 144.439 41.776C149.687 41.904 159.351 41.3919 161.911 40.7519C162.423 40.6239 162.999 40.944 163.063 41.456C163.191 41.968 162.871 42.48 162.359 42.608C159.607 43.312 152.055 43.6959 146.487 43.6959H144.439Z" fill="#1CC5FF"/>
<path d="M96.1519 43.3758L95.9599 43.1838C95.4479 42.6078 95.2559 42.0318 95.2559 41.3918C95.2559 40.6878 95.5119 39.9198 96.0239 39.2798C96.7919 38.1278 98.1999 37.0398 99.8639 36.2078C101.912 35.1838 104.536 34.4798 107.16 34.4798C108.568 34.4798 109.976 34.6718 111.384 35.1838L112.024 35.4398H112.088L113.624 34.3518L113.688 34.2878L113.816 34.2238C113.944 34.0958 114.008 34.0318 114.072 34.0318V33.9678C115.032 33.2638 116.184 34.6718 115.288 35.4398L115.096 35.6318L114.904 35.7598L114.84 35.8238C114.2 36.3998 112.92 37.5518 111.96 38.7678C111.256 39.5998 110.872 40.3038 110.872 40.8158C110.808 41.0078 110.872 41.0718 110.872 41.1358C110.936 41.1998 111.064 41.3278 111.512 41.4558C112.984 41.8398 115.736 41.0718 118.808 39.6638C121.688 38.3838 124.248 36.7838 125.08 36.2078C125.528 35.8878 126.104 35.9518 126.424 36.3998C126.744 36.7838 126.68 37.4238 126.232 37.7438C125.272 38.4478 122.52 40.1118 119.576 41.4558C116.76 42.7358 113.24 43.9518 111 43.3118C109.528 42.8638 108.76 41.8398 108.952 40.5598C109.016 40.1758 109.144 39.7918 109.272 39.4078L109.336 39.2798L107.864 40.1118L106.392 40.8798C104.408 41.9038 102.296 42.7998 100.568 43.3758C99.0959 43.8238 97.1759 44.2718 96.1519 43.3758ZM98.0719 41.9678C98.5839 41.9038 99.2239 41.7758 99.9919 41.5198C101.592 41.0078 103.576 40.1758 105.496 39.1518C106.968 38.4478 108.44 37.6158 109.72 36.8478L109.912 36.7198L109.4 36.5918C108.696 36.4638 107.928 36.3998 107.16 36.3998C104.856 36.3998 102.616 37.0398 100.76 37.9358C99.2239 38.7038 98.1359 39.5998 97.5599 40.4318C97.3039 40.8158 97.0479 41.3278 97.2399 41.7118L97.3679 41.8398C97.3679 41.9038 97.4959 41.9678 98.0719 41.9678Z" fill="#1CC5FF"/>
<path d="M81.6 42.1598C80.96 40.0478 83.2 37.7438 84.416 36.5278C86.656 34.2238 89.472 32.1118 89.664 31.9838C90.112 31.6638 90.688 31.7918 91.008 32.2398C91.328 32.6878 91.2 33.2638 90.752 33.5838C90.624 33.6478 87.936 35.6958 85.76 37.8718C85.184 38.4478 82.88 40.8798 83.456 41.6478C84.416 42.9278 89.536 41.2638 91.136 40.6238C93.888 39.5358 98.944 36.7198 99.776 36.2078C100.224 35.8878 100.8 36.0158 101.056 36.4638C101.376 36.9118 101.248 37.4878 100.8 37.8078C99.84 38.4478 94.72 41.3278 91.776 42.4798C90.112 43.1198 87.36 44.0158 85.056 44.0158C83.392 44.0158 82.048 43.5038 81.6 42.1598ZM93.312 29.1678C93.056 28.7198 93.248 28.0798 93.76 27.8878C94.016 27.7598 94.4 27.4398 94.784 27.1838L95.808 26.2878C96.192 25.9038 96.832 25.9678 97.152 26.3518C97.536 26.7358 97.472 27.3758 97.088 27.6958C96.832 27.9518 96.448 28.3358 96 28.6558C95.552 28.9758 95.04 29.3598 94.592 29.6158C94.144 29.8078 93.568 29.6158 93.312 29.1678Z" fill="#1CC5FF"/>
<path d="M64.6567 47.9198C64.0807 47.3438 63.8887 46.5758 63.8887 45.6798C63.8887 43.8238 64.8487 41.5198 66.1287 39.3438C68.1767 35.7598 71.3767 31.5358 74.9607 27.2478C82.0647 18.7358 90.7687 10.0958 94.6727 6.89581C95.0567 6.57581 95.6327 6.63981 96.0167 7.02381C96.3367 7.40781 96.2727 8.04781 95.8887 8.36781C92.1127 11.4398 83.5367 20.0158 76.4327 28.5278C72.9127 32.7518 69.7767 36.9118 67.7927 40.3038C66.8327 41.9678 66.1927 43.4398 65.9367 44.5918C65.6167 45.7438 65.8087 46.3838 66.0647 46.6398C66.9607 47.5998 69.8407 46.3838 73.1047 44.3998C77.6487 41.6478 82.8967 37.4878 84.6887 36.2078C85.1367 35.9518 85.7127 36.0158 86.0327 36.4638C86.3527 36.9118 86.2247 37.5518 85.7767 37.8078C83.6007 39.2798 78.6087 43.3758 73.9367 46.1278C71.3127 47.6638 68.9447 48.8798 67.0247 48.8798C66.1287 48.8798 65.2967 48.5598 64.6567 47.9198Z" fill="#1CC5FF"/>
<path d="M49.9125 42.1598C49.2725 40.0478 51.5125 37.7438 52.7285 36.5278C54.9685 34.2238 57.7845 32.1118 57.9765 31.9838C58.4245 31.6638 59.0005 31.7918 59.3205 32.2398C59.6405 32.6878 59.5125 33.2638 59.0645 33.5838C58.9365 33.6478 56.2485 35.6958 54.0725 37.8718C53.4965 38.4478 51.1925 40.8798 51.7685 41.6478C52.7285 42.9278 57.8485 41.2638 59.4485 40.6238C62.2005 39.5358 67.2565 36.7198 68.0885 36.2078C68.5365 35.8878 69.1125 36.0158 69.3685 36.4638C69.6885 36.9118 69.5605 37.4878 69.1125 37.8078C68.1525 38.4478 63.0325 41.3278 60.0885 42.4798C58.4245 43.1198 55.6725 44.0158 53.3685 44.0158C51.7045 44.0158 50.3605 43.5038 49.9125 42.1598ZM61.6245 29.1678C61.3685 28.7198 61.5605 28.0798 62.0725 27.8878C62.3285 27.7598 62.7125 27.4398 63.0965 27.1838L64.1205 26.2878C64.5045 25.9038 65.1445 25.9678 65.4645 26.3518C65.8485 26.7358 65.7845 27.3758 65.4005 27.6958C65.1445 27.9518 64.7605 28.3358 64.3125 28.6558C63.8645 28.9758 63.3525 29.3598 62.9045 29.6158C62.4565 29.8078 61.8805 29.6158 61.6245 29.1678Z" fill="#1CC5FF"/>
<path d="M0.759883 58.0961C0.759883 58.0321 0.823883 57.9681 0.823883 57.9041C1.01588 57.0721 2.03988 55.3441 2.99988 53.8721C4.27988 52.0161 6.00788 49.5201 8.05588 46.7041C12.1519 41.0081 12.9199 39.8561 18.5519 32.6241L18.9359 32.1121C17.3999 32.1121 15.1599 31.9841 13.2399 31.4721C12.0879 31.2161 10.9359 30.7041 10.1679 29.9361C9.33588 29.1041 9.07988 27.8881 9.65588 26.6081C10.2319 25.3281 11.3199 24.6881 12.6639 24.5601C14.0079 24.4321 15.4799 24.8161 17.0799 25.4561C18.5519 26.0961 20.2159 26.9921 22.0079 28.2081C31.9919 15.5361 42.0399 3.37608 44.9839 1.07208C45.4319 0.752077 46.0079 0.816076 46.3279 1.20008C46.6479 1.64808 46.5839 2.22408 46.1999 2.54408C43.5119 4.65608 33.9119 16.2401 23.6079 29.2961L23.9919 29.5521L25.5919 29.2321C32.5679 27.5041 42.5519 23.7921 51.6399 19.3761C57.7199 16.4321 63.2879 13.2321 67.2559 10.0961C71.4159 6.89608 73.4639 4.14408 73.2719 2.16007C73.2079 1.64808 73.5919 1.13608 74.1679 1.13608C74.6799 1.07208 75.1279 1.45608 75.1919 1.96808C75.4479 5.16808 72.4399 8.49608 68.4719 11.6321C64.3119 14.8321 58.6159 18.1601 52.4719 21.1041C43.3839 25.5841 33.2079 29.3601 25.9759 31.0881H25.9119L26.6799 31.6641C27.1919 32.1121 27.6399 32.5601 28.1519 32.9441C35.9599 40.0481 44.0879 50.7361 46.3919 61.6161C46.4559 62.1281 46.1359 62.6401 45.6239 62.7681C45.1119 62.8961 44.5999 62.5761 44.4719 62.0641C42.2959 51.6961 34.5519 41.3281 26.8719 34.4161C25.9119 33.5201 24.9519 32.7521 23.9919 31.9841L23.4799 31.6001L22.5839 31.7921C22.1999 31.8561 21.8159 31.9201 21.4959 31.9201L20.0239 33.8401C14.4559 41.0721 13.6879 42.1601 9.59188 47.7921C7.54388 50.6721 5.87988 53.1041 4.66388 54.9601C2.99988 57.3921 2.74388 58.1601 2.67988 58.2881L2.55188 58.6721C2.35988 58.9921 2.03988 59.1841 1.65588 59.1201C1.07988 59.0561 0.695883 58.6081 0.759883 58.0961ZM19.7039 30.1281C19.9599 30.1281 20.2159 30.1921 20.4719 30.1281C20.5999 30.0001 20.7279 29.8721 20.7919 29.7441C19.2559 28.6561 17.7199 27.8241 16.3759 27.2481C14.9039 26.6081 13.6879 26.4161 12.8559 26.4801C12.0879 26.5441 11.6399 26.8641 11.3839 27.3761C11.1279 28.0161 11.2559 28.3361 11.5759 28.5921C11.9599 28.9761 12.6639 29.3601 13.6879 29.6161C15.7359 30.1281 18.4239 30.1921 19.7039 30.1281Z" fill="#1CC5FF"/>
</svg>
